<svg width="60" height="72" viewBox="0 0 60 72" fill="none" xmlns="http://www.w3.org/2000/svg">
<mask id="path-1-inside-1_508_2250" fill="white">
<path fill-rule="evenodd" clip-rule="evenodd" d="M10 0C4.47715 0 0 4.47715 0 10V50C0 55.5228 4.47715 60 10 60H23.3077L39 72V60H50C55.5228 60 60 55.5228 60 50V10C60 4.47715 55.5228 0 50 0H10Z"/>
</mask>
<path fill-rule="evenodd" clip-rule="evenodd" d="M10 0C4.47715 0 0 4.47715 0 10V50C0 55.5228 4.47715 60 10 60H23.3077L39 72V60H50C55.5228 60 60 55.5228 60 50V10C60 4.47715 55.5228 0 50 0H10Z" fill="white"/>
<path d="M23.3077 60L23.9151 59.2056L23.6462 59H23.3077V60ZM39 72L38.3925 72.7944L40 74.0236V72H39ZM39 60V59H38V60H39ZM1 10C1 5.02944 5.02944 1 10 1V-1C3.92487 -1 -1 3.92487 -1 10H1ZM1 50V10H-1V50H1ZM10 59C5.02944 59 1 54.9706 1 50H-1C-1 56.0751 3.92487 61 10 61V59ZM23.3077 59H10V61H23.3077V59ZM22.7002 60.7944L38.3925 72.7944L39.6075 71.2056L23.9151 59.2056L22.7002 60.7944ZM40 72V60H38V72H40ZM50 59H39V61H50V59ZM59 50C59 54.9706 54.9706 59 50 59V61C56.0751 61 61 56.0751 61 50H59ZM59 10V50H61V10H59ZM50 1C54.9706 1 59 5.02944 59 10H61C61 3.92487 56.0751 -1 50 -1V1ZM10 1H50V-1H10V1Z" fill="black" fill-opacity="0.1" mask="url(#path-1-inside-1_508_2250)"/>
<circle cx="19" cy="39" r="3" fill="#80A3B7"/>
<circle cx="30" cy="39" r="3" fill="#80A3B7"/>
<circle cx="41" cy="39" r="3" fill="#80A3B7"/>
</svg>
